<?xml version="1.0" encoding="utf-8"?>
<!-- Generator: Adobe Illustrator 18.0.0, SVG Export Plug-In . SVG Version: 6.00 Build 0)  -->
<!DOCTYPE svg PUBLIC "-//W3C//DTD SVG 1.1//EN" "http://www.w3.org/Graphics/SVG/1.1/DTD/svg11.dtd">
<svg version="1.1" id="Calque_1" xmlns="http://www.w3.org/2000/svg" xmlns:xlink="http://www.w3.org/1999/xlink" x="0px" y="0px"
	 viewBox="0 0 149.3 105.3" enable-background="new 0 0 149.3 105.3" xml:space="preserve">
<g>
	
		<rect x="0.3" y="0.3" fill="#FFFFFF" stroke="#8C8C8C" stroke-width="0.6234" stroke-miterlimit="10" width="148.7" height="104.7"/>
	<circle fill="#8C8C8C" cx="74.6" cy="16.1" r="4.6"/>
	<g>
		<path fill="#4FBF3C" d="M105.6,66.2c-1.1,2.5-2.7,4.6-4.8,6.4c-1.2,1.1-2.6,2-4,2.9c-6.6,4.1-14.2,6.9-19.5,12.6
			c-0.6,0.7-1.2,1.3-1.7,2c-15.5-23-32.5-8-32.5-8S62.7,95.2,73,98.7c8,2.7,19.8-3.5,26-8.7C106.3,83.9,108.3,75.2,105.6,66.2z"/>
		<path fill="#4FBF3C" d="M59.2,40.2c0,0,0.8,0.5,2,1.6c0.6,0.5,1.4,1.2,2.2,2c0.4,0.4,0.8,0.9,1.3,1.3c0.4,0.5,0.9,1,1.3,1.6
			c0.9,1.1,1.8,2.3,2.8,3.7c0.4,0.7,0.9,1.4,1.3,2.1c0.2,0.4,0.5,0.7,0.7,1.1c0.2,0.4,0.4,0.8,0.6,1.2c0.4,0.8,0.8,1.6,1.3,2.4
			c0.4,0.8,0.7,1.7,1.1,2.6c0.8,1.7,1.3,3.6,1.9,5.4c0.3,0.9,0.5,1.8,0.7,2.8c0.2,0.9,0.4,1.8,0.6,2.8c0.3,1.8,0.5,3.7,0.7,5.4
			c0.1,1.8,0.1,3.5,0.1,5.1c0,0.8,0,1.6-0.1,2.4c-0.1,0.8-0.1,1.5-0.2,2.2c-0.1,1.4-0.2,2.7-0.5,3.8c-0.2,1.1-0.4,2.1-0.6,2.9
			C76,94.1,75.8,95,75.8,95s0.1-0.9,0.2-2.6c0.1-0.8,0.1-1.8,0.2-2.9c0.1-1.1,0.1-2.4,0.1-3.8c0-0.7,0-1.4,0-2.2c0-0.4,0-0.8,0-1.1
			c0-0.4-0.1-0.8-0.1-1.2c-0.1-1.6-0.2-3.3-0.4-5c-0.3-1.7-0.5-3.5-0.8-5.3c-0.2-0.9-0.4-1.8-0.6-2.7c-0.2-0.9-0.4-1.8-0.7-2.7
			c-0.6-1.7-1-3.5-1.8-5.2c-0.3-0.8-0.7-1.7-1-2.5c-0.4-0.8-0.8-1.6-1.1-2.4c-0.2-0.4-0.4-0.8-0.6-1.2c-0.2-0.4-0.4-0.7-0.6-1.1
			c-0.4-0.7-0.8-1.4-1.2-2.1c-0.4-0.7-0.8-1.3-1.2-2c-0.4-0.6-0.8-1.2-1.2-1.8C61.9,42.8,59.2,40.2,59.2,40.2z"/>
		<path fill="#FF99F1" d="M45.1,28.2c0,0,6.8-16.3,18.8-3c0,0,20.3-0.3,10.7,10.7c0,0,10.3,8.1-1.7,10.4c0,0,3.7,12.3-8.7,7.3
			c0,0-5,12.7-20.7,1.2c0,0-16,1.5-8.3-8.5c0,0-6.3-10.3,4.7-7.8C39.9,38.4,33.7,27.2,45.1,28.2z"/>
		<circle fill="#FCF165" cx="56.4" cy="39.4" r="7.8"/>
	</g>
</g>
</svg>
