<?xml version="1.0" encoding="utf-8"?>
<!-- Generator: Adobe Illustrator 18.0.0, SVG Export Plug-In . SVG Version: 6.00 Build 0)  -->
<!DOCTYPE svg PUBLIC "-//W3C//DTD SVG 1.1//EN" "http://www.w3.org/Graphics/SVG/1.1/DTD/svg11.dtd">
<svg version="1.1" id="Calque_1" xmlns="http://www.w3.org/2000/svg" xmlns:xlink="http://www.w3.org/1999/xlink" x="0px" y="0px"
	 viewBox="0 0 419 374" enable-background="new 0 0 419 374" xml:space="preserve">
<g>
	<path fill="#9B5F1E" d="M33,33.5c0,0,175-38,357,0V184H33V33.5z"/>
	<rect x="33.3" y="128.8" fill="#B9F47A" width="357" height="108"/>
	<path fill="#AD6D1F" d="M33,159.5c0,0,175-38,357,0V310H33V159.5z"/>
	<path fill="#C67D3C" d="M108.1,225.8c0,0,0.4,0.3,1.1,0.9c0.7,0.6,1.7,1.5,2.9,2.9c1.1,1.4,2.4,3.4,2.9,6.1c0.2,1.3,0.3,2.8,0,4.3
		c-0.3,1.5-0.9,3.1-1.7,4.6c-1.7,3-4.5,5.8-7.9,8.1c-3.5,2.3-7.7,4.2-12.5,4.9c-0.6,0.1-1.2,0.1-1.9,0.2c-0.6,0-1.2,0-1.8,0
		c-1.3-0.1-2.6-0.2-3.9-0.5c-2.6-0.6-5.1-1.8-7.3-3.5c-4.5-3.5-7.4-9-8.4-15c-1-6,0-12.8,3.7-18.4c0.2-0.4,0.5-0.7,0.7-1l0.4-0.5
		c0.1-0.1,0.1-0.1,0.2-0.3l0.2-0.2c0.3-0.3,0.5-0.6,0.8-0.9l1-0.9c1.3-1.2,2.7-2.2,4.1-3.1c3-1.8,6.2-3,9.5-3.9
		c6.6-1.7,13.8-2.4,20.9-1.6c1.7,0.1,3.6,0.5,5.4,0.8l1.4,0.2c0.5,0.1,0.9,0.2,1.3,0.3c0.9,0.2,1.8,0.5,2.7,0.7
		c3.5,1,7,2.3,10.4,3.7c6.8,2.9,13.3,6.6,19.8,10.4c6.4,3.8,12.9,7.7,19.5,11.1c6.6,3.4,13.5,6.3,20.8,8c7.2,1.7,14.8,2.5,22,1.5
		c1.8-0.2,3.6-0.7,5.2-1.1c0.9-0.3,1.9-0.6,2.7-0.9c0.9-0.3,1.7-0.6,2.6-1c3.4-1.4,6.8-3.1,10.1-4.9c6.5-3.7,12.8-8.1,19.1-12.3
		c6.3-4.2,12.6-8.5,19.2-12.2c6.6-3.7,13.5-6.9,20.8-8.8c0.9-0.3,1.8-0.4,2.7-0.6c0.9-0.2,1.8-0.4,2.7-0.5l1.4-0.2l0.3-0.1l0.2,0
		l0.2,0l0.7-0.1c0.8-0.1,1.9-0.1,2.9-0.2c3.8,0,7.4,0.5,11,1.4c7,1.8,13.5,4.7,19.1,8.9c2.8,2.1,5.3,4.6,7.2,7.4
		c1,1.4,1.8,3,2.5,4.6c0.6,1.6,1.1,3.3,1.2,5c0.4,3.4-0.3,6.8-1.5,9.8c-0.3,0.7-0.7,1.5-1,2.2c-0.3,0.6-0.8,1.4-1.2,2
		c-0.9,1.3-1.9,2.5-3,3.5c-2.2,2.1-4.7,3.8-7.3,5.1l-0.9,0.5l-1,0.4c-0.7,0.3-1.3,0.5-2,0.8c-1.3,0.5-2.7,0.8-4,1.1
		c-5.3,1.2-10.8,0.9-15.4-1.3c-2.2-1.1-4.2-2.5-5.7-4.3c-1.5-1.9-2.4-4-2.8-6.1c-0.8-4.2,0.3-8.3,2.5-11.1c0.3-0.3,0.5-0.7,0.9-1
		c0.3-0.3,0.6-0.6,0.9-0.8c0.3-0.3,0.7-0.5,1-0.7c0.3-0.2,0.7-0.4,1-0.6c1.4-0.7,2.8-1.1,4.1-1.4c2.7-0.5,5-0.1,6.7,0.5
		c1.7,0.6,2.9,1.3,3.7,1.9c0.7,0.6,1.1,0.9,1.1,0.9s-0.4-0.3-1.1-0.9c-0.8-0.5-2-1.2-3.7-1.7c-1.7-0.5-4-0.7-6.5-0.1
		c-2.5,0.6-5.3,1.9-7.2,4.5c-1.9,2.6-2.8,6.4-1.9,10.2c0.4,1.9,1.3,3.8,2.6,5.3c1.4,1.6,3.2,2.8,5.3,3.7c4.1,1.8,9.1,1.9,14,0.6
		c4.9-1.3,9.8-3.8,13.7-7.6c1-1,1.8-2,2.6-3.2c0.4-0.6,0.7-1.1,1-1.8c0.3-0.6,0.5-1.3,0.8-1.9c1-2.6,1.5-5.5,1.1-8.2
		c-0.1-1.4-0.6-2.8-1.1-4.1c-0.6-1.3-1.3-2.6-2.2-3.8c-1.7-2.4-4-4.6-6.5-6.5c-5.1-3.7-11.3-6.4-17.8-7.9c-3.3-0.8-6.6-1.2-9.9-1.2
		c-0.8,0-1.5,0-2.5,0.2l-0.7,0.1l-0.2,0c-0.1,0,0,0-0.1,0l-0.3,0.1l-1.3,0.2c-0.9,0.1-1.7,0.3-2.5,0.5c-0.8,0.2-1.7,0.4-2.5,0.6
		c-6.7,1.9-13.3,4.9-19.6,8.6c-6.3,3.7-12.5,7.9-18.8,12.1c-6.3,4.2-12.6,8.7-19.4,12.6c-3.4,2-6.9,3.8-10.6,5.3
		c-0.9,0.4-1.9,0.7-2.8,1.1c-1,0.4-1.8,0.6-2.8,0.9c-2.1,0.6-4,1.1-6.1,1.3c-8.1,1.1-16.2,0.2-23.9-1.7c-7.7-1.8-15-4.9-21.9-8.5
		c-13.7-7.1-25.8-16.1-38.8-21.7c-3.2-1.4-6.5-2.7-9.8-3.6c-0.8-0.2-1.7-0.5-2.5-0.7c-0.4-0.1-0.8-0.2-1.2-0.3l-1.2-0.2
		c-1.7-0.3-3.2-0.7-5-0.8c-0.9-0.1-1.7-0.2-2.6-0.3l-0.6-0.1l-0.3,0c-0.1,0,0,0-0.1,0l-0.2,0l-1.2-0.1c-1.7,0-3.3,0-5,0.1
		c-3.3,0.2-6.5,0.7-9.6,1.4c-6.2,1.5-11.9,4.3-15.1,9.1c-3.3,4.7-4.4,10.7-3.7,16.1c0.7,5.4,3.3,10.4,7.1,13.6
		c1.9,1.6,4.1,2.7,6.3,3.3c1.1,0.3,2.3,0.5,3.4,0.6c0.6,0,1.2,0,1.8,0c0.5,0,1.1,0,1.7-0.1c4.5-0.5,8.6-2.1,12-4.2
		c3.4-2.1,6.1-4.7,7.8-7.5c1.7-2.8,2.4-5.8,2-8.3c-0.3-2.6-1.5-4.5-2.5-6c-1.1-1.4-2.1-2.4-2.8-3.1
		C108.5,226.1,108.1,225.8,108.1,225.8z"/>
	<path fill="#FFF6CA" d="M297.2,132.4c-0.4,1-1.1,1.8-2,2.3c-1.9,1.1-4.1,1.3-6.2,1.5c-33.6,2.7-67.7,4.7-101.4,3.5
		c-10.8-0.4-21.1-4.1-31.9-2.9c-10.6,1.2-24.1,7.4-34,1.3c-9.6-6-1.2-23.1,1.5-31.2c4.6-14.3-18.6-60.6-0.1-67.5
		c10-3.8,19.8-0.6,29.9,0.8c9.2,1.3,17.9-0.1,27.2,0.1c20.9,0.5,41.8,1,62.7,0.6c14.2-0.2,39.5-11.4,51.9,0.3
		c9,8.5,2.3,26.2-1.2,35.8c-4.6,12.3-5.2,19.7-0.6,32.8C295.1,116,300.1,125.7,297.2,132.4z"/>
	<rect x="390.3" y="21.5" fill="#874F18" width="17" height="347"/>
	<rect x="16.3" y="21.5" fill="#874F18" width="17" height="347"/>
	<circle fill="#6D3D2C" cx="398.5" cy="18.4" r="15.9"/>
	<circle fill="#6D3D2C" cx="398.5" cy="156.4" r="15.9"/>
	<circle fill="#6D3D2C" cx="22.5" cy="18.4" r="15.9"/>
	<circle fill="#6D3D2C" cx="22.5" cy="156.4" r="15.9"/>
	<polygon opacity="0.22" points="33.3,309.5 390.7,308.9 390.7,367.9 33.3,342.5 	"/>
</g>
</svg>
