<?xml version="1.0" encoding="utf-8"?>
<!-- Generator: Adobe Illustrator 18.0.0, SVG Export Plug-In . SVG Version: 6.00 Build 0)  -->
<!DOCTYPE svg PUBLIC "-//W3C//DTD SVG 1.1//EN" "http://www.w3.org/Graphics/SVG/1.1/DTD/svg11.dtd">
<svg version="1.1" id="Calque_1" xmlns="http://www.w3.org/2000/svg" xmlns:xlink="http://www.w3.org/1999/xlink" x="0px" y="0px"
	 viewBox="0 0 380 526" enable-background="new 0 0 380 526" xml:space="preserve">
<g>
	<ellipse opacity="0.22" cx="233.9" cy="518.4" rx="79.1" ry="4.1"/>
	<path fill="#D8D5D2" d="M289.8,315.7c0-67.1-28.6-121.5-63.8-121.5c-35.3,0-63.8,54.4-63.8,121.5c0,33.4,7.1,60.2,18.6,78.7
		c23.5,73,31.5,113.9,45.3,113.9c13.8,0,19.4-37.8,45.3-113.9C282.7,376,289.8,349.2,289.8,315.7z"/>
	<path fill="none" stroke="#444444" stroke-width="3.6695" stroke-linecap="round" stroke-miterlimit="10" d="M66,223.7
		c3,7-6.3,10.2-10.9,5.9c-4.4-4.1-0.7-12.4,4.6-13.5c7.5-1.7,16.3,3.7,17.3,11.2c0.8,5.8-3.6,11.8-8.4,14.6
		c-10.7,6.3-25.7,0.9-26.5-12.2c-0.4-7,2.2-15.5,7.8-20c10-8,25.6-7.6,37.5-5.3c25,4.7,44.6,30.8,44.9,55.7
		c0.2,16.8-7,31.5-11.9,47.2c-2.8,9.2-2.6,23.2,4.1,31c5.1,5.9,14,6.9,21.3,5.7c6.6-1.1,18.2-5.5,22.4-10.6"/>
	<path fill="#FFFFFF" stroke="#353535" stroke-miterlimit="10" d="M327.1,203c-2.2,0-4.4-0.3-6.4-0.7c0.5,8.9,3.2,15.8,6.4,15.8
		c3.2,0,5.9-6.8,6.4-15.8C331.4,202.7,329.3,203,327.1,203z"/>
	<path fill="#DD7CBA" d="M226,194.3c-35.3,0-63.8,54.1-63.8,121.2c0,7.3,0.3,14.5,1,20.5h125.7c0.6-6,1-13.3,1-20.5
		C289.8,248.4,261.2,194.3,226,194.3z"/>
	<g>
		<path fill="#D8D5D2" d="M247,81C247,81,247,81,247,81C246.9,80.9,247,81,247,81z"/>
		<path fill="#D8D5D2" d="M357.5,192.2c0.1-0.1,0.3-0.2,0.4-0.2l-0.6-0.2c-28.9-60.5-69.5-90.3-92.6-102.8c-5.4-3.3-11.3-6-17.6-8
			l0,0.1c-40.9-13.2-83.9,6.6-96.1,44.3c-12.2,37.6,11,78.9,51.8,92.2l0-0.1c6.3,2.1,12.7,3.3,19,3.8c17.7,2.3,63.8-1.4,98.8-11.2
			c-4.6-4-25.6-1.7-28.1-7.3c12.2,2.6,24.5,2.6,36.9,2.8c9-3.7,18.2-8.1,27.7-13.3l0.6,0.2C357.6,192.6,357.6,192.3,357.5,192.2z"/>
	</g>
	<g>
		<path fill="#D8D5D2" d="M208.1,97.6c-3.9-5.6-8.1-10.9-12.4-16.1c-9.1-11.2-18.7-21.9-29.3-31.7c-11.4-10.5-22.4-19.3-35.6-27.5
			c-11.1-6.8-22.6-13.5-35.2-16.9c-25.9-7-57.7-1.6-73.8,21.5C13.1,39.1,9.3,53.9,7.1,68.6c-0.9,6.1-1.5,12.2-1.9,18.3
			c-0.7,11.8-0.4,23.6,0.9,35.3c2.4,20.6,8.4,45.7,23.4,61c9,9.2,15,14.3,28.1,17.2c12.7,2.8,25.9,2.5,38.7,0.4
			c15.8-2.5,30.4-7.6,45.6-12.2c13.2-4,25.1-8.4,37.5-14.2c2.1-1,14.5-5.4,14.9-7.5C194.4,167,208.1,97.6,208.1,97.6z"/>
		<path fill="#FFF5FF" d="M202.7,103.3c-5.7-8.9-17.5-20.2-24.6-28c-16.5-18-35.8-33.8-57.9-44.3C97,20,62.2,7.7,41.9,29.9
			C17.5,56.6,13,101.6,18.6,135.6c3.1,18.6,10.6,34.2,26.9,44.3c17.5,10.8,37.3,10.5,56.6,6.9c0,0,71.1-13.6,83.2-30.1L202.7,103.3z
			"/>
	</g>
	<ellipse fill="#FFFFFF" cx="253.1" cy="130.4" rx="13.8" ry="21.3"/>
	<path fill="#424242" d="M240.5,132.5c-1.7-0.6-4.1-1.8-2.8-3.8c0,0-3,2,0.2,3.7c-2.5-0.8-5.4-2.4-5-5.2c0,0-3.9,4.3,6.7,6.6
		c0.8-0.3,1.7-0.6,2.6-0.8l0,0C242.1,132.9,241.4,132.8,240.5,132.5z"/>
	<path fill="#353535" d="M253.1,127c-6.7,0-12.2,5.5-12.5,12.4c2.2,7.3,7,12.3,12.5,12.3c5.5,0,10.3-5,12.5-12.3
		C265.3,132.5,259.8,127,253.1,127z"/>
	<ellipse fill="#FFFFFF" cx="247.5" cy="135.3" rx="3.7" ry="4"/>
	<circle fill="#FFF5FF" cx="360.3" cy="192.1" r="13"/>
	<path fill="#B7B1AC" d="M237.9,499.4c14.3,0,25.9,8,25.9,17.6H212C212,507.3,223.6,499.4,237.9,499.4z"/>
	<g>
		<g>
			<path fill="#606060" d="M301.7,180.4c0,0-0.5-0.2-1.4-0.6c-0.9-0.4-2.2-0.8-3.9-1.4c-0.9-0.3-1.8-0.6-2.8-0.9
				c-1-0.3-2.2-0.6-3.4-0.9c-1.2-0.3-2.5-0.6-3.9-0.9c-0.7-0.2-1.4-0.3-2.1-0.5c-0.7-0.2-1.5-0.3-2.2-0.4c-1.5-0.3-3.1-0.6-4.7-0.9
				c-1.6-0.2-3.3-0.5-5-0.8c-1.7-0.3-3.5-0.5-5.3-0.7c-1.8-0.2-3.7-0.4-5.6-0.6c-1.9-0.1-3.8-0.3-5.8-0.4c-1-0.1-2-0.1-3-0.2
				c-1-0.1-2-0.1-3-0.1c-4-0.1-8.1-0.4-12.2-0.2c-2,0-4.1,0-6.1,0c-2,0-4.1,0.1-6.1,0.2c-4,0.2-8,0.2-11.8,0.6
				c-3.8,0.3-7.5,0.5-11,0.9c-3.5,0.4-6.8,0.8-9.8,1.1c-1.5,0.2-3,0.3-4.4,0.5c-1.4,0.2-2.7,0.4-3.9,0.6c-2.5,0.3-4.6,0.6-6.4,0.9
				c-3.6,0.5-5.6,0.7-5.6,0.7s2-0.4,5.5-1.2c1.8-0.4,3.9-0.8,6.3-1.3c1.2-0.2,2.5-0.5,3.9-0.8c1.4-0.2,2.8-0.4,4.4-0.7
				c3-0.5,6.3-0.9,9.8-1.5c3.5-0.5,7.2-0.8,11-1.2c3.8-0.4,7.8-0.6,11.9-0.8c2-0.1,4.1-0.3,6.1-0.3c2,0,4.1,0,6.2,0
				c4.1-0.1,8.2,0.2,12.3,0.3c1,0.1,2,0.1,3,0.1c1,0.1,2,0.2,3,0.3c2,0.2,3.9,0.4,5.9,0.5c1.9,0.2,3.8,0.5,5.6,0.8
				c1.8,0.3,3.6,0.5,5.4,0.9c1.7,0.3,3.4,0.6,5.1,0.9c1.6,0.4,3.2,0.7,4.7,1.1c1.5,0.3,2.9,0.7,4.3,1.1c1.3,0.4,2.6,0.7,3.8,1.2
				c1.2,0.4,2.3,0.8,3.3,1.1c1,0.4,1.9,0.7,2.8,1.1c0.8,0.3,1.6,0.6,2.2,0.9c0.6,0.3,1.2,0.5,1.6,0.7
				C301.3,180.2,301.7,180.4,301.7,180.4z"/>
		</g>
		<g>
			<path fill="#606060" d="M301,186.5c0,0-0.5-0.1-1.3-0.2c-0.9-0.2-2.1-0.3-3.7-0.5c-0.8-0.1-1.7-0.1-2.7-0.2c-1,0-2-0.1-3.1-0.1
				c-1.1-0.1-2.3,0-3.6,0c-1.3,0-2.6,0-4,0.1c-1.4,0.1-2.8,0.2-4.3,0.3c-1.5,0.2-3,0.3-4.6,0.5c-0.8,0.1-1.6,0.2-2.4,0.3
				c-0.8,0.1-1.6,0.3-2.4,0.4c-1.6,0.3-3.3,0.5-5,0.8c-1.7,0.4-3.4,0.7-5.1,1.1c-1.7,0.4-3.5,0.7-5.2,1.3c-3.5,1-7.1,1.8-10.5,3.1
				c-1.7,0.6-3.5,1.1-5.2,1.7l-1.3,0.4l-1.3,0.5c-0.9,0.3-1.7,0.7-2.5,1c-3.4,1.3-6.8,2.5-9.9,4c-3.1,1.4-6.2,2.7-9.1,4
				c-2.8,1.4-5.5,2.7-8,4c-1.2,0.6-2.4,1.2-3.6,1.8c-1.1,0.6-2.2,1.2-3.2,1.7c-2,1.1-3.7,2-5.1,2.8c-2.9,1.5-4.5,2.4-4.5,2.4
				s1.5-1,4.3-2.8c1.4-0.9,3-1.9,4.9-3.1c1-0.6,2-1.3,3-1.9c1.1-0.6,2.3-1.3,3.5-1.9c2.4-1.3,5.1-2.8,7.9-4.3
				c2.8-1.5,5.9-2.9,9.1-4.3c3.1-1.6,6.5-2.8,9.9-4.2c0.9-0.3,1.7-0.7,2.6-1l1.3-0.5l1.3-0.4c1.8-0.6,3.5-1.2,5.3-1.8
				c3.5-1.2,7.2-2.1,10.7-3c1.8-0.5,3.6-0.8,5.3-1.2c1.8-0.3,3.5-0.7,5.2-1c1.7-0.2,3.4-0.5,5.1-0.7c0.8-0.1,1.7-0.2,2.5-0.3
				c0.8-0.1,1.6-0.1,2.4-0.2c1.6-0.1,3.1-0.3,4.7-0.3c1.5,0,3,0,4.4-0.1c1.4-0.1,2.7,0,4,0.1c1.3,0.1,2.5,0.1,3.6,0.2
				c1.1,0.1,2.2,0.2,3.2,0.3c1,0.1,1.9,0.3,2.7,0.4c0.8,0.1,1.5,0.3,2.1,0.4c0.6,0.1,1.1,0.2,1.6,0.4
				C300.5,186.4,301,186.5,301,186.5z"/>
		</g>
	</g>
	<path fill="#B7B1AC" d="M253.1,109.1c-7.6,0-13.8,9.5-13.8,21.3c0,1.1,0.1,2.1,0.2,3.2c3.5,0.9,8.9,1.3,15,1.3
		c4.6,0,8.9-0.2,12.2-0.8c0.1-1.2,0.2-2.4,0.2-3.7C266.9,118.6,260.7,109.1,253.1,109.1z"/>
	<path fill="#EAA2D4" d="M163.1,336h125.7c0,0-21.5,137-35.8,147h-50.4C202.7,483,171.7,422,163.1,336z"/>
	<path fill="#D8D5D2" d="M215.7,357.1l-0.2-106.5c0-7.5,6.2-13.7,13.7-13.8l2.6,0c7.5,0,13.7,6.2,13.8,13.7l0.2,106.5
		c0,7.5-6.2,13.7-13.7,13.8l-2.6,0C221.9,370.8,215.7,364.7,215.7,357.1z"/>
	<path fill="#DD7CBA" stroke="#CE65AE" stroke-width="2" stroke-miterlimit="10" d="M245.6,251.9c0-7.5-6.2-14.4-13.8-14.4l-2.6-0.3
		c-7.5,0-13.7,7.4-13.7,14.9l0.2,94.9h30.1L245.6,251.9z"/>
	<path fill="#F98B12" d="M241,496.7V516h-46v5h70v-6.2C265,505.2,254,497.3,241,496.7z"/>
</g>
</svg>
