<?xml version="1.0" encoding="utf-8"?>
<!-- Generator: Adobe Illustrator 18.0.0, SVG Export Plug-In . SVG Version: 6.00 Build 0)  -->
<!DOCTYPE svg PUBLIC "-//W3C//DTD SVG 1.1//EN" "http://www.w3.org/Graphics/SVG/1.1/DTD/svg11.dtd">
<svg version="1.1" id="Calque_1" xmlns="http://www.w3.org/2000/svg" xmlns:xlink="http://www.w3.org/1999/xlink" x="0px" y="0px"
	 viewBox="0 0 86 37.5" enable-background="new 0 0 86 37.5" xml:space="preserve">
<g>
	<path fill="#D34866" d="M83.3,26.2c-1.8,15.1-28.2,10-38.6,7.7c-3.9-0.9,8-17.3,9-18.3c4.2-4.4,10.5-11.1,17.2-10.9
		C79.4,4.8,84.4,16.9,83.3,26.2z"/>
	<path fill="#D34866" d="M5.4,24.2c1.2,15.2,27.7,11.2,38.2,9.4c4-0.7-7.2-17.7-8.2-18.7c-4-4.6-10-11.5-16.7-11.7
		C10.2,3.1,4.7,14.9,5.4,24.2z"/>
	<ellipse transform="matrix(0.9433 0.3319 -0.3319 0.9433 12.6121 -12.7318)" fill="#BA2048" cx="43.6" cy="30.6" rx="5" ry="5"/>
</g>
</svg>
