<?xml version="1.0" encoding="utf-8"?>
<!-- Generator: Adobe Illustrator 18.0.0, SVG Export Plug-In . SVG Version: 6.00 Build 0)  -->
<!DOCTYPE svg PUBLIC "-//W3C//DTD SVG 1.1//EN" "http://www.w3.org/Graphics/SVG/1.1/DTD/svg11.dtd">
<svg version="1.1" id="Calque_1" xmlns="http://www.w3.org/2000/svg" xmlns:xlink="http://www.w3.org/1999/xlink" x="0px" y="0px"
	 viewBox="0 0 162.5 68" enable-background="new 0 0 162.5 68" xml:space="preserve">
<g>
	<path fill="none" stroke="#666666" stroke-width="2.6393" stroke-miterlimit="10" d="M145.7,47.5c2.9-1,4.6-4.1,3.9-7.1
		c-0.7-2.9-3.3-5.1-6.2-5.5c-6.3-0.9-11.1,6-9.4,11.7c1.7,5.9,7.9,9.5,13.8,8.1c5.8-1.3,10.3-6.6,11-12.4
		c1.5-12.8-12.8-21.8-24.2-17.7L96.4,36.1"/>
	<polygon fill="#FFDC48" points="116.7,64 2.9,66 98,1.2 	"/>
	<g>
		<line fill="none" stroke="#F2C63B" stroke-miterlimit="10" x1="6.6" y1="64.7" x2="106.2" y2="49.6"/>
		<line fill="none" stroke="#F2C63B" stroke-miterlimit="10" x1="5.3" y1="65.1" x2="96.9" y2="23.3"/>
		<line fill="none" stroke="#F2C63B" stroke-miterlimit="10" x1="6" y1="65.2" x2="103" y2="36.1"/>
	</g>
</g>
</svg>
