<?xml version="1.0" encoding="utf-8"?>
<!-- Generator: Adobe Illustrator 18.0.0, SVG Export Plug-In . SVG Version: 6.00 Build 0)  -->
<!DOCTYPE svg PUBLIC "-//W3C//DTD SVG 1.1//EN" "http://www.w3.org/Graphics/SVG/1.1/DTD/svg11.dtd">
<svg version="1.1" id="Calque_1" xmlns="http://www.w3.org/2000/svg" xmlns:xlink="http://www.w3.org/1999/xlink" x="0px" y="0px"
	 viewBox="0 0 90.5 81" enable-background="new 0 0 90.5 81" xml:space="preserve">
<g>
	<path fill="#542A1E" d="M83.8,70.3l-24.4-6.3c-2.9-0.7-4.6-3.7-3.9-6.6l0,0c0.7-2.9,3.7-4.6,6.6-3.9l24.4,6.3
		c2.9,0.7,4.6,3.7,3.9,6.6v0C89.6,69.3,86.6,71.1,83.8,70.3z"/>
	<path fill="#542A1E" d="M6.7,70.3l24.4-6.3c2.9-0.7,4.6-3.7,3.9-6.6l0,0c-0.7-2.9-3.7-4.6-6.6-3.9L4,59.9c-2.9,0.7-4.6,3.7-3.9,6.6
		l0,0C0.9,69.3,3.9,71.1,6.7,70.3z"/>
	<path fill="#603426" d="M45.1,44c-12.6,0-22.8,16.7-22.8,37h45.6C67.9,60.7,57.7,44,45.1,44z"/>
	<circle fill="#603426" cx="25.6" cy="9" r="9"/>
	<circle fill="#603426" cx="64.6" cy="9" r="9"/>
	<ellipse fill="#6D3D2C" cx="45.4" cy="32.3" rx="24.5" ry="22.3"/>
	<circle fill="#1E1E1E" cx="36.9" cy="27" r="3.3"/>
	<circle fill="#1E1E1E" cx="52.9" cy="27" r="3.3"/>
	<ellipse fill="#542A1E" cx="44.9" cy="42" rx="3.7" ry="4"/>
</g>
</svg>
