<?xml version="1.0" encoding="utf-8"?>
<!-- Generator: Adobe Illustrator 18.0.0, SVG Export Plug-In . SVG Version: 6.00 Build 0)  -->
<!DOCTYPE svg PUBLIC "-//W3C//DTD SVG 1.1//EN" "http://www.w3.org/Graphics/SVG/1.1/DTD/svg11.dtd">
<svg version="1.1" id="Calque_1" xmlns="http://www.w3.org/2000/svg" xmlns:xlink="http://www.w3.org/1999/xlink" x="0px" y="0px"
	 viewBox="0 0 164 295" enable-background="new 0 0 164 295" xml:space="preserve">
<g>
	<path fill="#D34866" d="M159,272.4c-0.7-2.7-1.3-5.5-2-8.2c-1.7-7-3.5-14.1-5.2-21.1c-2.7-11-5.4-22.1-8.1-33.1
		c-0.1-0.3-0.1,1-0.2-1H87.2c0,0-1.7,0-4.7,0c-3,0-4.8,0-4.8,0H21.3c-0.1,2-0.1,0.7-0.2,1c-2.7,11-5.4,22-8.1,33
		c-1.7,7-3.5,14.1-5.2,21.1c-0.7,2.7-1.3,5.5-2,8.3c-0.3,1.2-3.4,10.5-3.1,10.5c0,0,0,0,0,0c0,0,0-0.1,0.1-0.1
		c4.7-0.2,9.5,0.5,14.2,1.7c4.4,1.1,8.5,4.4,12.9,5.9c5.1,1.7,11,2.9,16.4,2.4c10.7-0.9,19.6-8.6,30.2-9.9c3.6-0.4,7.4-0.4,11,0.3
		c7.8,1.5,12.6,7.5,20.6,8.7c7,1.1,15.1,0.6,21.8-1.9c3.7-1.4,7.3-3.4,11-4.8c3.6-1.3,7.2-2.2,10.9-2.6c3.5-0.4,6.8,0.2,10.3,0.1
		C162.4,282.8,159.3,273.6,159,272.4z"/>
	<g>
		<polygon fill="none" stroke="#CECECE" stroke-width="2.3476" stroke-linejoin="round" stroke-miterlimit="10" points="24.2,64.9 
			135.8,64.8 80,16.3 		"/>
		<line fill="none" stroke="#CECECE" stroke-width="2" stroke-miterlimit="10" x1="79.5" y1="17" x2="79.5" y2="2"/>
	</g>
	<path fill="#E872A2" d="M129.3,47.7c-2.8-0.1-5.6-0.1-8.1,1c-5,2.3-6.4,7.4-8.3,12c-2.3,5.4-4.9,10-9.1,14.4
		c-4.5,4.7-10.5,8.4-17,8.7c-2.9,0.1-5.7,0.1-8.6,0c-6.5-0.3-12.5-4-17-8.7c-4.2-4.4-6.8-9-9.1-14.4c-2-4.6-3.3-9.7-8.4-12
		c-2.5-1.1-5.3-1.2-8.1-1C21,48.3,21.5,54.4,21.5,66.8c0,47.2,0,94.2,0,142.2c0,0,30,0,61,0s61,0,61,0c0-48,0-95,0-142.2
		C143.5,54.4,144,48.3,129.3,47.7z"/>
</g>
</svg>
