<?xml version="1.0" encoding="utf-8"?>
<!-- Generator: Adobe Illustrator 18.0.0, SVG Export Plug-In . SVG Version: 6.00 Build 0)  -->
<!DOCTYPE svg PUBLIC "-//W3C//DTD SVG 1.1//EN" "http://www.w3.org/Graphics/SVG/1.1/DTD/svg11.dtd">
<svg version="1.1" id="Calque_1" xmlns="http://www.w3.org/2000/svg" xmlns:xlink="http://www.w3.org/1999/xlink" x="0px" y="0px"
	 viewBox="0 0 229 245" enable-background="new 0 0 229 245" xml:space="preserve">
<g>
	<rect x="0" fill="#BC7A31" width="229" height="245"/>
	<rect x="12.3" y="96" fill="#9B5F23" width="204.5" height="139"/>
	<circle fill="#89501D" cx="114.5" cy="46.1" r="13.2"/>
	<rect x="11.5" y="227" fill="#89501D" width="205.2" height="8.6"/>
	<g>
		<rect x="12" y="113.5" fill="#FC4D17" width="23.4" height="121.5"/>
		<path fill="#FCF0D4" d="M23.7,117.4c6.5,0,11.7-2.4,11.7-4.4H12C12,115,17.2,117.4,23.7,117.4z"/>
	</g>
	<g>
		
			<rect x="61.1" y="113.5" transform="matrix(0.9 -0.4358 0.4358 0.9 -68.6602 49.1451)" fill="#303099" width="23.4" height="121.5"/>
		<path fill="#FCF0D4" d="M48,123.1c5.8-2.8,9.5-7.3,8.6-9.1l-21,10.2C36.5,126,42.2,125.9,48,123.1z"/>
	</g>
</g>
</svg>
