<?xml version="1.0" encoding="utf-8"?>
<!-- Generator: Adobe Illustrator 18.0.0, SVG Export Plug-In . SVG Version: 6.00 Build 0)  -->
<!DOCTYPE svg PUBLIC "-//W3C//DTD SVG 1.1//EN" "http://www.w3.org/Graphics/SVG/1.1/DTD/svg11.dtd">
<svg version="1.1" id="Calque_1" xmlns="http://www.w3.org/2000/svg" xmlns:xlink="http://www.w3.org/1999/xlink" x="0px" y="0px"
	 viewBox="0 0 153.5 358" enable-background="new 0 0 153.5 358" xml:space="preserve">
<g>
	<path fill="#FF9E3E" d="M15.8,208.5h122.4c0,0-20.9,137-34.8,147h-49C54.3,355.5,24.2,294.5,15.8,208.5z"/>
	<line fill="none" stroke="#E2751B" stroke-width="3" stroke-miterlimit="10" x1="78" y1="250.5" x2="78" y2="355.5"/>
	<g>
		<polygon fill="none" stroke="#CECECE" stroke-width="2.3476" stroke-linejoin="round" stroke-miterlimit="10" points="20.7,64.9 
			132.3,64.8 76.5,16.3 		"/>
		<line fill="none" stroke="#CECECE" stroke-width="2" stroke-miterlimit="10" x1="75.5" y1="16.5" x2="75.5" y2="1.5"/>
	</g>
	<path fill="#FFDC48" d="M135.4,48c-6.6-1.4-14.5-0.6-19.7,1.7c-5,2.3-6.4,7.4-8.3,12c-2.3,5.4-4.9,10-9.1,14.4
		c-4.5,4.7-10.5,8.4-17,8.7c-2.9,0.1-5.7,0.1-8.6,0c-6.5-0.3-12.5-4-17-8.7c-4.2-4.4-6.8-9-9.1-14.4c-1.8-4.2-3.1-8.6-7-11.3
		c-3.9-2.7-7.6-2.5-12.1-2.5c-8.4,0-18.1,1-22.1,9.5c-3.9,8.3-3.9,18.1-3.9,27.1c0,15.9,0,31.7,0,47.6c0,20,0,40,0,59.9
		c0,10.5,0,20.9,0,31.4c0,0,0,0.1,0,0.1c1,0,15,0,15,0v-14c6,0,32.8,0,60.5,0c27.7,0,54.5,0,59.5,0v14h15c0,0,0-145.5,0-145.5
		c0-9.6-0.7-21.3-9.5-27.3C140.1,49.5,138,48.6,135.4,48z"/>
	<line fill="none" stroke="#EFCF48" stroke-width="2" stroke-miterlimit="10" x1="17.5" y1="209.5" x2="17.5" y2="91.5"/>
	<line fill="none" stroke="#EFCF48" stroke-width="2" stroke-miterlimit="10" x1="135.5" y1="209.5" x2="135.5" y2="91.5"/>
</g>
</svg>
